<svg xmlns="http://www.w3.org/2000/svg" width="26.561" height="26.561" viewBox="0 0 26.561 26.561">
  <path id="Path_397" data-name="Path 397" d="M178.481,95.2a13.281,13.281,0,1,0,13.281,13.281A13.3,13.3,0,0,0,178.481,95.2Zm0,2.415a10.866,10.866,0,1,1-10.866,10.866A10.848,10.848,0,0,1,178.481,97.618Zm0,2.012a1.208,1.208,0,0,0-1.207,1.207v7.646a1.205,1.205,0,0,0,.352.855l4.842,4.842a1.209,1.209,0,0,0,1.71-1.71l-4.49-4.49v-7.143a1.207,1.207,0,0,0-1.207-1.207Z" transform="translate(-165.2 -95.203)"/>
</svg>
